<svg width="587" height="560" viewBox="0 0 587 560" fill="none" xmlns="http://www.w3.org/2000/svg">
<path d="M121 338V343L82 359L51 373L43 376H38V372L48 366L61 361L94 348L121 338Z" fill="black"/>
<path d="M327 433L341 463L354 493L359 504L358 509H354L350 500L332 457L324 437L327 433Z" fill="black"/>
<path d="M394 376.5L455 426L457 428V431L453 432L390 382L394 376.5Z" fill="black"/>
<path d="M480 367L489 371L490 375L489 376L482 375L414 347L416.5 342L480 367Z" fill="black"/>
<path d="M38 190L45 191L87 206L110.5 215.5L110 221L101 218L75 208L38 195L37 192L38 190Z" fill="black"/>
<path d="M34 253H52L107 260V266L44 258L33 255L34 253Z" fill="black"/>
<path d="M350 59L354 61L353 67L341 95L329 125L323 127L326 118L342 76L348 61L350 59Z" fill="black"/>
<path d="M185 96L189 97L196 111L214 156L211 162L192 118L186 103L185 96Z" fill="black"/>
<path d="M209 81L212 82L217 97L227 136L223 143L208 88V82L209 81Z" fill="black"/>
<path d="M119 319L121 324L85 334L66 339L62 338L64 334L80 329L119 319Z" fill="black"/>
<path d="M377 428L382 430L396 447L407 461L416 473L415 476L411 474L400 462L391 451L379 436L377 433V428Z" fill="black"/>
<path d="M58 282H110L111 287H56V283L58 282Z" fill="black"/>
<path d="M143.5 434L147 438L137 451L123 469L116 477H113L114 471L126 456L139 439L143.5 434Z" fill="black"/>
<path d="M234 62L237 63L240 79L245 114L239 117L232 64L234 62Z" fill="black"/>
<path d="M290 473L296 519V525L292 526L290 519L285 476L290 473Z" fill="black"/>
<path d="M294 50L297 51V62L292 98L291.5 104L286 102.5L287 93L292 53L294 50Z" fill="black"/>
<path d="M65 309H75V313L55 316L31 319H22V316L27 314L55 310L65 309Z" fill="black"/>
<path d="M375 394L382 400L410 428V432L405 431L372 398L375 394Z" fill="black"/>
<path d="M70 135L75 136L88 146L100 155L109 162V168L102 164L88 153L75 143L69 138L70 135Z" fill="black"/>
<path d="M346.5 421L364 451L369 459L368 464L363 461L342 425L346.5 421Z" fill="black"/>
<path d="M404.5 360L432 377L444 384V388L437 387L401 366L404.5 360Z" fill="black"/>
<path d="M63 228L73 229L107 238V244L90 240L64 233L62 232L63 228Z" fill="black"/>
<path d="M440.5 300.5L486 307L490 309L489 312L438 305L440.5 300.5Z" fill="black"/>
<path d="M397 100H400L399 105L391 116L378 134L371 143L367 139L381 121L393 105L397 100Z" fill="black"/>
<path d="M438.806 133.633L440.983 134.145L435.736 146.694L416.139 172.408L410.978 167.979L433.148 140.113L438.806 133.633Z" fill="black"/>
<path d="M427.5 322L464 331L466 335L465 336H458L425 327L427.5 322Z" fill="black"/>
<path d="M117 364L116 370L90 385L87 387L82 386L84 382L94 376L117 364Z" fill="black"/>
<path fill-rule="evenodd" clip-rule="evenodd" d="M156 94.0017C136.859 73.4746 117.83 65.7885 92 67.0017C82.5 70.0021 74 76.5021 74 85.0017L76 89.0017C91.6398 103.218 99.8508 112.25 111 135.002L116 152.002C120.544 172.805 121.163 185.66 120 210.002L116 246.002C117 276.502 119.38 291.567 130 322.002C134.444 334.739 129.975 354.096 125.367 374.052C124.91 376.031 124.451 378.016 124 380.002C120.5 422.002 229 490.002 271 469.002C289.57 458.066 298.902 450.814 310 432.002L320 422.002L340 408.002L351 399.002C392.059 360.339 419.387 315.103 445.918 271.187C452.265 260.681 458.567 250.249 465 240.002L472 230.002L482 216.002L491 202.002L497 193.002L505 182.002L516 165.002L525 152.002L535 137.002L550 113.002C559.5 96.0017 553 83.5017 546 78.0017C535.5 71.0017 522.5 71.5017 511 81.0017L502 91.0017L491 106.002L475 128.002L468 138.002L462 147.002L453 159.002L447 166.002L441 175.002L433 186.002L425 196.002L422 197.002C419.901 186.904 415.541 182.226 404 175.002C391.272 167.998 383.78 165.698 369 169.002C366.195 153.858 359.51 147.066 347 140.002C330 134.502 322.411 135.827 311 140.002C306.672 123.738 301.721 117.754 283 113.002C266 110.002 258.026 113.009 247 124.002L235 143.002L227 156.002L207 191.002L199 204.002C196.927 206.91 195.322 206.99 194 205.002C188.731 194.796 187.14 186.518 186 169.002C180.462 131.797 172.031 117.77 156 94.0017ZM92 80.0017C86.7401 76.9211 87.8638 75.7648 92 74.0017C99.6457 72.8315 103.456 73.0971 110 74.0017C132.9 79.5197 143.591 89.6071 152 100.002C170.883 124.891 176.231 143.826 180 183.002L184 203.002L193 222.002L197 227.002L200 225.002L199 214.002L202 210.002L207 205.002L213 195.002L226 172.002C229.5 164.502 234.5 160.002 233 167.002L230 178.002L222 205.002L225 204.002L230 202.002V199.002L239 168.002L248 139.002L253 128.002C261.292 118.778 265.052 116.985 282 120.002C302.5 128.502 304.964 139.211 304 152.002L300 161.002L297 171.002L289 190.002L296 192.002V189.002L301 175.002L304 169.002L308 157.002C315.989 141.378 323.5 141.002 343 146.502C355.5 152.002 360.233 161.775 361 172.002L357 184.002L345 212.002L344 217.002L348 220.002L352 210.002L362 188.002C369.5 174.002 379.5 170.002 397 179.502C412 189.502 419.737 201.366 408 221.002L401 232.002L387 251.002L375 270.002L376 281.002L383 270.002L393 253.002L403 239.002L411 227.002L420 213.002L431 199.002L445 182.002L457 165.002L467 152.002L476 139.002L506 97.0017C514.141 86.0314 524.461 76.1555 539 81.0017C550.222 91.2835 550.136 98.7753 541 115.002L521 145.002L514 156.002L500 177.002L490 191.002L474 215.002L460 235.002L452 248.002L443 260.002C443 260.002 437.5 268.502 437 270.002C436.5 271.502 433 269.002 433 269.002C433 269.002 431.5 267.002 421 263.002C410.5 259.002 412 261.002 412 261.002L416 264.002C416 264.002 429.5 274.502 431 275.002C432.5 275.502 431 278.002 431 278.002L424 290.002C389.463 351.422 364.429 377.204 315 416.002C310.702 416.002 306.683 416.158 302.824 416.309C293.511 416.672 285.127 416.998 276 415.002C260 411.502 264 414.002 264 414.002L280 420.002L299 423.002C304.702 424.729 305.359 426.09 303 429.002C289.644 448.275 281.61 454.051 267 462.002C228 479.002 116 411.002 133 368.002L138 342.002L143 347.002L152 357.002L163 366.002C163 366.002 164.5 367.502 163 364.002C161.5 360.501 157 355.002 157 355.002L143 335.002L138 326.002L137.568 324.435C128.304 290.8 122.03 268.022 124 237.002C130.04 200.605 129.133 181.979 123 151.002L122 143.002L124 141.002C124 141.002 135.5 137.502 135 137.002C134.5 136.501 133.5 136.002 133 136.002H120V134.002C120 134.002 126 130.502 125 130.002C124 129.501 117 129.002 117 129.002C114.021 126.857 113.307 125.172 114 121.002L117 114.002C118.5 103.002 114.749 95.0871 92 80.0017ZM109.002 102C103.135 94.8306 98.6344 90.8569 87.0018 83.9996C82.8354 82.5325 80.6361 81.8051 83.0018 84.9996C83.0018 84.9996 90.0275 92.1237 94 96C100.988 102.818 106 109.5 109.002 114C111.548 117.816 111.809 114.336 111.934 112.669C111.956 112.37 111.974 112.13 112 112C112.5 109.5 111.002 106 111.002 106L109.002 102Z" fill="black"/>
<path d="M406 131L410 132L408 137L386.5 158.5L382 156L394 143L406 131Z" fill="black"/>
<path d="M363 100L366 101L365 108L354 127L352 130L347 129L349 124L361 102L363 100Z" fill="black"/>
<path d="M238 482L234 513H230L229 511L230 497L232 481.5L238 482Z" fill="black"/>
<path d="M84 177L90 179L104 187L112 192V198L101 192L84 182L83 178L84 177Z" fill="black"/>
<path d="M114.5 302L116 307L81 312L80 308L87 306L114.5 302Z" fill="black"/>
<path d="M314 81H317L318 85L310 115L306 112L307 104L312 84L314 81Z" fill="black"/>
<path d="M311 453L318 480L317 485L313 483L306.5 458L311 453Z" fill="black"/>
<path d="M169 59L174 60L179 70L183 81L182 85L178 84L169 64V59Z" fill="black"/>
<path d="M264 74L267 75L268 77V103L263 104V75L264 74Z" fill="black"/>
<path d="M163.001 223.999C163.001 223.999 174.503 222.999 174.001 223.999C173.5 224.999 169.001 227.999 169.001 227.999C160.575 232.213 149.76 234.758 142.001 226.999C140.501 225.499 163.001 223.999 163.001 223.999Z" fill="black"/>
<path d="M115 393L116.5 398L104 409L96 413L94 411L101 403L115 393Z" fill="black"/>
<path d="M87 415H90L89 419L85 424L77 430L70 431L71 427L82 418L87 415Z" fill="black"/>
<path d="M447.998 190.002C450.485 189.151 451.78 189.632 453.998 191.002L461.998 196.002L466.998 200.002C469.28 202.097 469.611 203.147 469.998 205.002C470.408 208.729 468.954 208.202 465.998 206.002L447.998 193.002C446.944 191.571 446.995 190.922 447.998 190.002Z" fill="black"/>
<path d="M175 489L180 490L178 499L174 507L170 508L169 503L175 489Z" fill="black"/>
<path d="M126.5 415L130 420L120 430L117 431L115 430L116 426L126.5 415Z" fill="black"/>
<path d="M264.999 129.999C268.476 129.664 270.378 129.149 273.999 129.999L284.999 133.999C288.697 136.368 289.634 137.669 291.999 139.999C292.061 141.046 291.269 141.216 288.999 140.999C279.065 139.607 273.735 137.846 264.999 131.999C264.087 131.068 264.019 130.625 264.999 129.999Z" fill="black"/>
<path d="M190 466L187 475L183 483H179L180 476L185.5 463.5L190 466Z" fill="black"/>
<path d="M455 279H471L472 283L471 284L452 285L454 280L455 279Z" fill="black"/>
<path d="M363 406.5L375 422L374 425L369 422L360 410L363 406.5Z" fill="black"/>
<path d="M376.001 185C379.816 185.127 381.865 184.915 386.001 186C390.348 187.635 392.473 188.757 396.001 191L402.001 196C403.368 197.187 403.826 197.761 402.001 198L396.001 196L376.001 186C375.45 185.549 375.609 185.345 376.001 185Z" fill="black"/>
<path d="M321.998 154C325.501 153.641 327.499 153.619 330.998 154C335.15 154.976 337.204 155.799 339.998 158C343.513 160.343 345.484 161.657 348.998 164C350.301 165.645 349.69 165.745 346.998 165L321.998 155C320.7 154.451 320.802 154.233 321.998 154Z" fill="black"/>
<path d="M483 253H488L487 257L468 259L470.5 254L483 253Z" fill="black"/>
<path d="M164 450L168 453.5L163 463L159 464V458L164 450Z" fill="black"/>
<path d="M231 44L235 45L236 47V57L232 58L230 51V45L231 44Z" fill="black"/>
<path d="M493 309H503L506 311L505 314H494L492 310L493 309Z" fill="black"/>
<path d="M493.001 131C495.869 130.686 497.528 130.669 501.001 132C504.535 135.325 504.124 134.501 507.001 139C509.878 143.5 510.138 144.517 509.001 144L493.001 132C492.181 131.46 492.04 131.218 493.001 131Z" fill="black"/>
<path d="M495 251H502L501 256L494 257L492 256L493 252L495 251Z" fill="black"/>
<path d="M229 517L233 518V525L229 527L227 523L229 517Z" fill="black"/>
<path d="M405 88L409 89L408 94L405 97L401 96L402 92L405 88Z" fill="black"/>
<path d="M358.999 233.999C360.094 232.844 361.076 232.53 364.999 233.999L370.999 237.999C374.298 240.557 374.498 241.999 373.999 242.999C373.5 244 368.999 240.999 368.999 240.999L359.999 235.999C358.86 235.472 358.575 235.07 358.999 233.999Z" fill="black"/>
<path d="M23 251L30 252V256L24 257L22 255L23 251Z" fill="black"/>
<path d="M209 475L214 476L213 483L209 484L208 480L209 475Z" fill="black"/>
<path d="M264 482V491H260L259 489V483L264 482Z" fill="black"/>
<path d="M335.293 269.793H339.483L342.244 269.983L346.053 270.65L347.957 271.126L350.623 272.173L352.623 273.03L354.336 273.982L356.05 275.125L357.574 276.077L358.621 276.934L360.049 278.362L360.716 279.124L361.763 280.171L363.096 282.171L364.048 283.885L364.81 285.408L365.857 287.979L366.429 289.979L366.905 293.025L367.095 295.025V298.453L366.81 301.595L366.333 305.308L365.286 311.497L364.62 314.544L363.763 317.781L362.144 323.018L361.097 325.97L359.764 329.302L358.335 332.444L356.431 336.253L355.193 338.443L354.336 339.966L353.479 341.395L352.146 343.489L351.385 344.632L350.337 346.155L349.195 347.774L348.338 348.917L347.671 349.773L346.91 350.726L346.053 351.773L345.005 353.011L343.863 354.249L343.196 355.01L341.768 356.534L338.816 359.485L338.055 360.152L337.293 360.914L336.531 361.58L335.389 362.627L334.341 363.484L333.104 364.532L331.485 365.77L330.438 366.531L328.819 367.674L327.295 368.721L324.915 370.245L322.535 371.673L320.916 372.625L319.393 373.482L315.203 375.577L312.537 376.814L309.871 377.957L307.11 379.004L303.016 380.337L298.921 381.48L296.255 382.146L291.495 383.099L287.02 383.765L283.687 384.146L281.021 384.336L278.641 384.432H270.262L266.834 384.241L262.264 383.765L257.789 383.099L253.98 382.337L249.791 381.29L245.696 380.052L242.745 379.004L239.888 377.862L236.937 376.624L233.794 375.196L230.367 373.482L228.843 372.625L226.749 371.387L224.844 370.245L223.416 369.292L221.607 368.055L218.179 365.579L216.656 364.341L215.608 363.484L214.275 362.342L212.752 360.914L211.99 360.247L210.752 359.104L208.658 357.01V356.819H208.467L207.801 356.058L206.753 354.915L206.087 354.153L205.04 353.011L204.183 351.963L203.135 350.63L201.802 348.917L200.564 347.203L199.231 345.394L198.279 343.965L197.232 342.347L195.994 340.347L194.852 338.443L192.566 334.253L190.853 330.73L189.805 328.35L188.377 324.732L186.758 320.162L185.997 317.686L184.949 313.497L184.092 309.307L183.426 304.737L182.95 300.262L182.664 295.787V290.645L182.854 286.932L183.235 283.504L183.807 278.934L184.378 276.172L184.759 274.935L185.044 274.744L185.521 275.22L186.092 276.553L187.139 278.838L188.091 280.552L189.043 282.171L190.281 284.075L191.043 285.313L192.186 287.217L193.042 288.836L193.899 290.74L194.28 292.168L194.947 296.548L195.137 298.167V300.738L194.852 303.213L194.375 306.355L193.899 309.212L193.614 311.973V316.163L193.804 317.972L194.375 320.542L195.137 323.018L196.185 325.684L197.613 328.731L198.565 330.54L199.708 332.635L201.136 334.92L202.469 337.015L204.659 340.252L205.706 341.775L208.277 345.203L209.229 346.441L211.324 348.917L212.371 350.059L213.228 351.011L215.989 353.772L216.751 354.439L218.179 355.772L220.464 357.867L222.083 359.104L223.13 359.771L224.559 360.247H225.606L227.986 359.581L229.7 359.009L230.176 358.914H230.843L231.319 360.533L231.89 363.484L232.176 365.103L232.747 365.96L233.509 366.817L235.794 368.055L238.65 369.483L241.507 370.721L244.839 372.054L247.41 373.006L251.219 374.244L255.123 375.291L260.169 376.338L264.358 377.005L266.834 377.291L271.595 377.576H275.594L280.164 377.386L283.592 377.1L288.257 376.434L292.447 375.672L296.541 374.72L300.064 373.768L303.587 372.625L306.919 371.387L309.966 370.054L312.251 369.007L315.584 367.293L317.774 366.055L319.964 364.913L321.487 363.96L322.725 362.913L323.677 361.58L324.534 359.676L324.915 357.676L325.105 355.867V352.344L325.201 351.297L325.772 350.154L326.819 349.773L328.628 349.583L331.866 349.297L333.675 348.821L335.579 348.155L337.007 347.488L339.007 346.441L340.625 345.298L341.863 344.251L342.815 343.394L343.577 342.728L344.434 341.68L345.196 340.728L346.434 338.824L347.767 336.539L349.195 333.968L350.528 331.397L351.766 328.826L353.575 324.446L354.527 321.78L355.384 319.019L355.955 316.258L356.241 313.877V312.449L355.955 311.021L355.384 309.402L354.527 307.784L353.765 306.832L352.623 305.499L351.48 304.07L350.813 303.213L350.623 302.928L350.147 302.261V301.88L350.718 301.214L351.385 300.167L352.242 299.214L353.384 298.357L354.527 297.31L355.289 296.358L356.241 294.549L357.002 292.645L357.193 291.597L357.383 289.217V288.455L357.098 287.122L356.622 285.884L355.955 284.742L354.908 283.504L354.241 282.742L353.67 282.076L352.242 281.028L351.004 280.171L349.576 279.314L347.386 278.077L345.196 277.125L343.482 276.648L341.292 276.172L339.673 275.982H334.437L331.485 276.268L324.629 277.315L320.63 278.077L316.631 279.029L312.632 280.076L305.872 282.171L294.732 285.884L288.829 287.884L286.067 288.836L282.449 290.074L278.355 291.502L274.261 292.835L270.071 294.168L262.645 296.453L259.217 297.31L257.312 297.881L254.932 298.357L253.79 298.643L251.219 299.214L248.172 299.69L246 300.002L245.5 294.502L251.314 293.501L255.313 292.645L257.503 292.073L261.597 290.931L265.311 289.788L269.119 288.646L273.594 287.122L279.783 285.123L287.496 282.552L291.399 281.219L295.97 279.6L301.302 277.791L306.729 276.077L310.728 274.839L315.203 273.602L318.44 272.745L322.059 271.888L326.438 270.936L331.104 270.174L333.77 269.888L335.293 269.793Z" fill="black"/>
<path d="M270.643 200.188H276.737L281.021 200.473L285.211 200.854L289.21 201.425L293.304 202.187L297.398 203.139L302.35 204.567L305.777 205.71L308.729 206.757L311.3 207.805L313.585 208.852L316.061 210.09L318.155 211.232L319.869 212.185L321.678 213.232L324.154 214.755L325.772 215.803L327.582 217.041L329.2 218.183L332.247 220.468L333.771 221.706L335.104 222.753L336.056 223.61L336.817 224.277L339.769 227.038L340.816 228.085L341.483 228.847L342.911 230.275L343.578 231.037L344.339 231.799L345.196 232.846L346.148 233.894L347.386 235.512L348.434 236.845L349.386 238.083L350.528 239.702L352.337 242.463L353.67 244.558L354.813 246.462L355.765 248.176L357.003 250.461L358.622 253.698L359.955 256.65L361.668 260.839L362.335 262.744L363.382 266.076L363.763 267.695L363.858 268.361V269.123L362.145 268.552L360.24 267.695L357.193 266.171L354.432 264.838L351.766 263.696L348.91 262.744L347.577 262.363L345.006 261.982L343.102 261.411L341.578 260.649L340.912 259.887L340.436 258.745L340.34 258.364V256.65L341.007 252.27L341.292 250.747L341.483 248.652V245.795L341.007 242.939L340.531 241.13L339.579 238.94L338.436 236.75L337.198 234.941L336.437 233.989L335.389 232.751L334.342 231.608L333.294 230.561L332.247 229.704L331.39 228.942L330.152 227.99L328.343 226.752L327.105 225.991L324.916 224.753L323.487 224.086L321.012 223.134L318.822 222.563L317.108 222.277L315.965 222.182H311.585L309.776 222.277H308.062L307.015 221.992L305.968 221.325L305.301 220.468L304.635 219.04L303.873 217.231L303.207 216.088L302.445 215.136L301.112 213.803L299.779 212.756L298.351 211.804L296.446 210.756L294.447 209.995L291.781 209.328L287.687 208.566L284.735 208.186L280.736 207.805L279.879 207.9L278.07 208.376L276.451 209.138L275.023 209.995L272.547 211.423L271.405 211.899L270.262 212.185H268.929L267.406 211.804L264.645 210.566L263.407 209.995L261.217 209.328L260.741 209.233H259.884L257.694 209.519L255.218 209.995L252.552 210.661L249.41 211.613L247.125 212.28L244.84 213.042L242.364 214.184L241.031 214.946L240.174 215.612L239.127 216.564L238.365 217.517L237.604 218.85L237.032 220.087L236.651 221.325L236.461 222.849L236.366 226.562L235.985 228.466L235.414 229.133L234.557 229.609H233.319L231.415 229.228L228.749 228.466L227.606 228.276H225.892L222.94 228.752L219.894 229.514L217.989 230.275L216.371 231.132L214.752 232.275L213.324 233.513L212.562 234.274L211.896 235.036L210.943 235.988L209.991 237.226L208.753 238.845L207.706 240.083L206.468 241.796L205.135 243.701L204.469 244.748L203.421 246.367L202.279 248.461L200.851 251.223L199.898 253.413L198.946 256.079L198.185 258.84L197.708 261.506L197.518 263.41V266.552L197.994 268.933L198.565 271.027L199.518 273.408L200.565 275.407L201.803 277.407L202.945 278.93L203.993 280.168L204.85 281.12L205.421 281.787L206.183 282.453L207.23 283.405L209.706 285.31L212.276 287.023L216.085 289.309L218.846 290.737L220.465 291.499L222.274 292.165L224.369 292.832L229.32 293.879L232.176 294.355C236.431 294.9 241.232 295.279 245.5 294.498L246 299.998L242.364 300.354L239.603 300.544H235.128L231.034 300.258L228.082 299.877L225.321 299.401L223.036 298.83L220.75 298.164L218.275 297.307L215.418 296.164L213.229 295.117L211.8 294.355L209.706 293.117L207.325 291.594L205.707 290.451L203.897 289.118L202.66 287.976L201.612 287.214L200.279 286.071L198.089 283.881L197.137 282.644L195.804 280.834L194.186 278.168L193.043 275.883L192.281 273.884L191.52 271.027L191.043 268.647L190.853 267.124L190.758 265.791V263.791L190.948 261.125L191.52 257.602L192.091 255.031L192.757 252.746L193.519 250.651L194.471 248.366L195.519 246.081L196.661 243.986L197.613 242.368L198.47 240.939L199.518 239.321L200.47 237.988L201.422 236.75L202.088 235.798L202.66 235.036L203.326 234.179L204.374 232.941L205.707 231.513L206.563 230.466L208.087 228.847L211.515 225.419L212.276 224.753L213.514 223.61L214.847 222.563L215.704 221.801L216.656 221.04L217.513 220.373L219.037 219.135L220.084 218.374L221.798 217.136L224.75 215.136L226.368 214.089L227.796 213.232L231.224 211.232L232.271 210.661L235.033 209.233L237.223 208.186L240.079 206.948L242.65 205.9L246.744 204.472L251.219 203.139L255.694 202.092L260.836 201.14L263.597 200.759L269.024 200.283L270.643 200.188Z" fill="black"/>
<path d="M312.92 287.977H313.206V297.498L313.111 299.307L312.92 299.783L311.778 299.593L310.159 299.117H308.921L308.16 299.307L303.78 301.021L302.447 301.783L302.161 302.068L301.971 303.211V307.781L302.066 317.303L302.161 318.064L303.113 317.684L305.97 316.255L307.588 315.303L309.493 314.065L310.064 313.875V320.921L309.969 324.729L309.683 325.206L308.731 325.682L307.208 325.967L305.303 326.348L303.97 326.824L303.113 327.396L302.161 328.348L301.875 329.014L301.971 332.823L302.066 352.247L302.161 353.008L304.065 352.437L306.636 351.485L309.778 349.961L310.826 349.39L311.873 348.628L312.92 347.581L314.158 345.962L315.206 344.725L315.777 344.058L316.062 343.963L316.253 344.82V347.581L316.158 354.246L316.062 355.77L315.777 356.341L314.349 357.293L312.349 358.436L310.826 359.197L308.826 360.245L305.113 361.863L301.114 363.482L296.734 365.005L293.877 365.862L291.592 366.434H290.069L290.259 365.291L291.021 363.577L291.688 361.673L291.783 361.102V301.402L291.592 300.545L290.64 298.831L289.593 297.117L289.402 296.736L289.498 296.355L290.259 295.975L312.063 288.357L312.92 287.977Z" fill="black"/>
<path d="M338.914 281.598L339.39 281.693L339.581 281.979V292.928L339.39 294.452L338.819 295.309L338.438 295.594L338.057 295.689H336.915L335.391 295.404L333.772 294.833L333.201 294.452L332.725 293.69L331.868 289.786L331.487 289.024L329.964 288.453L329.297 288.358L327.679 288.834L327.107 289.215L326.346 290.262L325.965 291.5V293.595L326.346 295.689L326.822 297.213L327.583 298.832L328.25 299.784L329.107 300.736L331.487 303.116L332.249 303.783L333.296 304.735L334.344 305.592L335.867 307.02L337.581 308.734L338.343 309.686L339.2 310.829L339.961 311.971L340.818 313.304L341.771 315.494L342.342 317.494L342.627 319.303L342.818 321.207V323.397L342.437 326.539L341.771 328.919L340.818 331.109L340.057 332.442L339.009 333.871L337.962 335.013L337.295 335.68L335.582 336.917L333.772 337.87L332.059 338.441L329.678 338.822H326.822L325.203 338.536L322.537 337.774L321.68 338.06L321.299 338.25V338.441H321.109V338.631L320.347 339.298L319.681 339.964L318.348 341.012L317.3 341.678L316.634 341.869H316.253L316.062 341.297V323.492L316.348 322.826L317.205 322.064L318.919 321.112L321.204 320.16L323.87 319.208L325.298 318.827H325.774L325.965 319.208V327.586L326.25 329.015L326.631 329.872L327.107 330.633L327.964 331.3L328.726 331.49H329.678L330.63 331.109L331.202 330.633L331.678 329.872L331.963 328.443L332.154 326.825V322.54L331.868 320.064L331.487 318.636L330.63 316.732L329.488 314.828L328.726 313.685L327.679 312.447L324.537 309.305L323.489 308.448L321.871 306.925L321.014 306.068L320.157 305.021L319.395 304.068L318.348 302.545L317.491 300.926L317.015 299.593L316.634 297.308V294.452L316.919 292.738L317.681 290.167L318.348 288.644L319.014 287.596L320.157 286.263L321.109 285.406L322.537 284.454L323.965 283.692L325.394 283.121L328.06 282.359L328.345 282.264H330.345L331.773 282.455L333.677 283.121L334.629 283.597H335.105L335.486 283.788L336.534 282.835L337.867 281.979L338.914 281.598Z" fill="black"/>
<path fill-rule="evenodd" clip-rule="evenodd" d="M307.207 230.086H304.827L303.589 230.181L302.732 230.372L302.256 230.752V231.705L302.827 233.323L303.494 235.323L303.589 236.561V263.316L303.494 264.839L302.827 266.839L302.351 267.981L301.97 269.124L301.875 270.171H303.018L303.779 269.981L307.683 268.838L312.158 267.601L316.062 266.553L319.204 265.601L321.394 264.744L323.013 263.792L324.441 262.84L325.298 262.078L326.44 260.84L327.583 259.222L328.154 258.174L328.821 256.365L329.392 253.89L329.773 251.033V247.415L329.678 246.749L329.297 244.654L328.821 242.94L328.25 241.417L326.917 238.846L325.964 237.417L325.012 236.18L323.489 234.656L322.441 233.799L321.299 232.942L319.775 231.99L317.681 231.133L315.681 230.467L313.682 230.181L307.207 230.086ZM313.967 237.705L313.11 237.609L312.824 238.085V258.652L312.919 259.509L313.015 259.604L313.491 259.699L314.157 259.509L316.728 258.842L318.156 258.461L319.204 257.985L319.965 257.224L320.822 255.605L321.394 254.082L321.679 252.749L321.774 251.035V247.797L321.679 246.75L321.203 244.56L320.632 242.751L319.87 241.323L319.013 240.18L318.251 239.514L317.109 238.752L315.776 238.181L313.967 237.705Z" fill="black"/>
<path d="M225.702 239.133H227.32L229.796 239.514L231.795 240.085L233.795 241.132L234.747 241.608L235.509 241.704L237.318 241.037L238.365 240.751H238.746L238.841 241.037L238.746 246.083V252.939L238.46 253.701L237.699 254.177L236.556 254.462L232.271 254.367L231.129 253.986L230.748 253.51L230.272 252.272V250.178L230.082 248.94L229.701 247.797L229.129 246.94L228.177 246.369L227.416 246.179H225.702L224.75 246.56L223.893 247.226L223.321 247.988L222.94 249.035L222.75 250.368V272.268L223.036 274.648L223.417 276.076L224.178 277.6L224.845 278.266L225.606 278.742L226.749 279.028H227.701L228.749 278.647L229.415 277.98L229.986 276.838L230.272 275.6V271.125L230.082 269.792L229.796 269.316H229.129L228.177 269.792L227.511 269.982H226.463L226.273 269.697L226.178 269.221V264.174L226.273 263.413L226.368 263.317H237.984L238.46 263.793L238.651 264.27V278.647L238.746 283.217V286.55L237.889 286.359L236.556 285.693L235.509 284.931L234.747 284.55L234.081 284.455L231.034 285.979L229.701 286.455H227.416L224.369 286.169L222.75 285.693L220.846 284.741L219.037 283.598L217.989 282.741L216.847 281.694L215.895 280.551L214.657 278.837L213.895 277.504L213.038 275.314L212.848 273.601V254.843L213.038 252.272L213.324 250.463L213.8 248.94L214.466 247.321L215.323 245.893L216.561 244.179L217.608 243.037L218.37 242.275L219.989 241.037L221.607 240.18L223.893 239.418L225.702 239.133Z" fill="black"/>
<path d="M205.137 297.5L206.66 298.071L207.803 298.643L209.231 299.5L210.85 300.356L213.04 301.404L214.563 302.166L216.943 303.403L217.705 303.975L218.276 304.641L218.467 305.117V308.164L218.943 311.592L219.895 317.209L221.323 326.16L222.085 331.682L222.371 333.11L222.466 333.301L222.751 332.349L223.513 328.54L224.18 324.827L224.846 321.399L226.084 315.305L226.655 313.02L226.846 310.83L226.941 307.593L227.227 306.641L227.417 306.355L228.464 306.26H229.797L236.177 306.831L237.795 307.021L238.081 307.117V308.831L237.795 309.973L237.319 310.544L236.938 311.592L236.177 314.163L235.701 316.067L233.987 322.161L232.178 328.826L230.654 334.253L229.512 338.442L228.179 343.203L227.798 345.012L227.703 345.964V349.773L227.607 350.725L227.417 351.106L226.56 350.916L225.989 350.535L224.846 349.487L223.132 347.773L222.371 347.107L221.133 345.869L220.466 345.107L218.943 343.489L217.8 342.251L217.134 341.489L216.182 340.442L215.229 339.204L214.849 338.442V337.3L215.039 336.062L215.134 334.824L214.944 333.11L214.563 331.111L212.944 324.731L211.611 319.019L210.754 315.21L209.707 311.021L208.945 307.878L208.184 305.022L207.422 302.832L206.184 300.547L205.422 298.547L205.137 297.786V297.5Z" fill="black"/>
<path d="M251.123 305.879H252.456L252.551 305.974V307.212L251.79 310.735L251.504 312.354L251.409 315.02V352.153L251.504 357.104L251.694 359.009L252.17 360.913L252.932 363.293L253.027 363.77V364.912L251.98 364.817L250.742 364.436L248.076 363.389L245.41 362.246L242.268 360.723L241.221 360.056L240.364 359.294L240.078 358.628L240.173 357.676L241.03 355.01L241.221 353.867L241.316 352.725V322.351L241.221 315.115V310.925L241.03 308.45V307.021L241.602 306.831L245.886 306.355L248.267 306.069L251.123 305.879Z" fill="black"/>
<path fill-rule="evenodd" clip-rule="evenodd" d="M260.169 219.328H256.265L255.789 219.423L253.409 219.995L251.504 220.756L249.6 221.804L248.172 222.756L247.029 223.803L245.887 225.136L245.125 226.184L244.554 227.231L243.982 228.469L243.221 231.135L243.03 232.373L242.84 234.848V274.458L242.935 275.41L243.221 276.743L243.982 279.123L244.839 280.932L245.887 282.456L247.029 283.598L248.172 284.455L249.6 285.217L251.124 285.693L252.933 285.979H254.742L255.408 285.883L258.074 285.407L259.788 284.836L261.407 284.074L263.121 283.027L264.073 282.36L265.215 281.218L266.453 279.694L267.31 278.361L267.977 276.838L268.548 274.743L268.833 272.934L268.929 270.935L268.833 229.421L268.643 228.088L268.167 226.279L267.596 224.946L266.739 223.422L265.977 222.375L265.311 221.708L263.978 220.661L262.168 219.804L260.169 219.328ZM257.22 226.852H255.792L255.315 226.947L254.458 227.328L253.792 227.899L253.03 228.851L252.459 230.279L252.173 231.517L252.078 233.897V266.651L252.173 274.554L252.269 275.316L252.554 276.078L253.125 277.03L253.887 277.696L254.839 277.982H255.601L256.268 277.887L257.41 277.506L258.172 276.935L259.029 275.982L259.41 275.03V230.565L259.124 229.042L258.648 227.899L257.981 227.137L257.22 226.852Z" fill="black"/>
<path fill-rule="evenodd" clip-rule="evenodd" d="M288.07 218.184H284.071L283.309 218.279L281.976 218.564L280.262 219.136L278.739 219.993L277.406 220.945L276.644 221.707L275.597 222.849L274.549 224.468L273.788 226.086L273.407 227.515L273.121 229.8V266.553L273.407 268.552L273.978 270.837L274.93 273.027L275.882 274.456L277.215 275.789L278.548 276.646L279.977 277.217L281.881 277.598H283.976L286.07 277.312L288.07 276.836L290.545 275.884L292.259 274.932L294.068 273.789L295.211 272.742L296.258 271.504L297.21 269.98L297.877 268.457L298.543 265.981L298.924 264.077L299.115 261.697V230.371L298.924 228.943L298.639 227.61L297.877 225.325L296.925 223.516L296.068 222.278L295.306 221.421L294.354 220.564L293.402 219.897L291.878 219.136L290.165 218.564L288.07 218.184ZM286.448 226.562H285.401L284.449 226.848L283.687 227.324L283.021 228.086L282.544 229.419L282.449 246.082V264.553L282.64 266.362L282.925 267.505L283.497 268.457L284.163 269.028L285.115 269.314H286.543L287.4 269.028L288.257 268.457L288.829 267.791L289.59 266.267L289.781 264.934V230.181L289.495 228.848L288.924 227.896L288.067 227.134L287.496 226.848L286.448 226.562Z" fill="black"/>
<path fill-rule="evenodd" clip-rule="evenodd" d="M272.738 300.641H273.976L275.309 300.831L276.927 301.307L278.736 302.164L279.879 302.926L281.021 303.973L281.783 304.925L282.545 306.354L283.116 307.972L283.497 309.305L283.688 311.495V313.495L283.592 317.113L283.402 318.541L282.831 320.541L281.878 322.54L280.926 323.778L279.593 325.206L278.546 326.158L276.546 327.491L275.309 328.253H275.118V328.443H275.88L277.403 328.729L279.593 329.491L281.402 330.348L282.735 331.205L283.973 332.157L285.497 333.68L286.354 334.918L287.115 336.346L287.687 337.679L288.163 339.774L288.353 342.154V352.152L288.067 355.675L287.782 357.484L286.925 360.055L285.877 361.864L285.116 363.006L284.068 364.149L283.211 364.911L281.593 366.053L279.974 366.91L277.689 367.672L276.07 368.053L275.499 368.148H272.928L268.263 367.767L262.931 367.101L259.027 366.434L257.503 365.958L256.932 365.577L256.456 365.006L256.266 364.054L256.932 362.054L257.503 360.626L257.599 360.15L257.694 357.77V314.637L257.503 309.876L256.932 307.687L256.646 306.449V305.497L257.123 305.021L265.406 302.45L267.882 301.688L270.167 301.021L271.881 300.736L272.738 300.641ZM267.312 336.062H271.311L272.834 336.253L274.262 336.729L275.31 337.3L276.262 338.062L277.119 339.205L277.69 340.538L278.071 342.251L278.166 342.918V352.82L277.88 354.629L277.404 355.962L276.547 357.391L275.976 358.057L275.024 358.724L273.786 359.2L272.834 359.485H270.739L267.502 359.2L267.216 359.009L267.121 358.724V354.058L267.216 336.253L267.312 336.062ZM273.404 308.449H270.262L268.833 308.735L267.31 309.211L267.215 311.496V322.827L267.405 323.303L269.595 322.731L271.119 322.065L272.642 321.303L273.499 320.637L274.546 319.494L275.213 318.161L275.499 317.019L275.403 310.83L275.308 310.163L275.022 309.306L274.642 308.83L273.404 308.449Z" fill="black"/>
</svg>
